<mxfile>
    <diagram id="Vkf1kccMHPyQg5MPIpvl" name="Page-1">
        <mxGraphModel dx="820" dy="253" grid="1" gridSize="10" guides="1" tooltips="1" connect="1" arrows="1" fold="1" page="1" pageScale="1" pageWidth="827" pageHeight="1169" math="0" shadow="0">
            <root>
                <mxCell id="0"/>
                <mxCell id="1" parent="0"/>
                <mxCell id="w2loQe_CoKNBEsXn6_GD-2" value="&lt;p style=&quot;margin: 0px ; margin-top: 4px ; text-align: center&quot;&gt;&lt;b&gt;&lt;font style=&quot;font-size: 15px&quot;&gt;MemberFactory&lt;/font&gt;&lt;/b&gt;&lt;/p&gt;&lt;hr size=&quot;1&quot;&gt;&lt;p style=&quot;margin: 0px ; margin-left: 4px&quot;&gt;&lt;br&gt;&lt;/p&gt;&lt;hr size=&quot;1&quot;&gt;&lt;p style=&quot;text-align: justify ; margin: 0px 0px 0px 4px&quot;&gt;&lt;font style=&quot;font-size: 14px&quot;&gt;&amp;nbsp; + createMember()&lt;/font&gt;&lt;/p&gt;" style="verticalAlign=top;align=left;overflow=fill;fontSize=12;fontFamily=Helvetica;html=1;" parent="1" vertex="1">
                    <mxGeometry x="120" y="120" width="190" height="100" as="geometry"/>
                </mxCell>
                <mxCell id="w2loQe_CoKNBEsXn6_GD-3" value="&lt;p style=&quot;text-align: center ; margin: 4px 0px 0px ; font-size: 14px&quot;&gt;&lt;font style=&quot;font-size: 14px&quot;&gt;Concreate1(Developer)&lt;/font&gt;&lt;/p&gt;&lt;hr size=&quot;1&quot; style=&quot;text-align: justify ; font-size: 14px&quot;&gt;&lt;p style=&quot;text-align: justify ; margin: 0px 0px 0px 4px&quot;&gt;&lt;br&gt;&lt;/p&gt;&lt;hr size=&quot;1&quot; style=&quot;text-align: justify&quot;&gt;&lt;p style=&quot;text-align: justify ; margin: 0px 0px 0px 4px&quot;&gt;&lt;font style=&quot;font-size: 14px&quot;&gt;+ createMember()&lt;/font&gt;&lt;/p&gt;" style="verticalAlign=top;align=left;overflow=fill;fontSize=12;fontFamily=Helvetica;html=1;" parent="1" vertex="1">
                    <mxGeometry x="40" y="320" width="160" height="90" as="geometry"/>
                </mxCell>
                <mxCell id="w2loQe_CoKNBEsXn6_GD-5" value="&lt;p style=&quot;text-align: center ; margin: 4px 0px 0px ; font-size: 14px&quot;&gt;&lt;font style=&quot;font-size: 14px&quot;&gt;Concreate2(Tester)&lt;/font&gt;&lt;/p&gt;&lt;hr size=&quot;1&quot; style=&quot;text-align: justify ; font-size: 14px&quot;&gt;&lt;p style=&quot;text-align: justify ; margin: 0px 0px 0px 4px&quot;&gt;&lt;br&gt;&lt;/p&gt;&lt;hr size=&quot;1&quot; style=&quot;text-align: justify&quot;&gt;&lt;p style=&quot;text-align: justify ; margin: 0px 0px 0px 4px&quot;&gt;&lt;font style=&quot;font-size: 14px&quot;&gt;+ createMember()&lt;/font&gt;&lt;/p&gt;" style="verticalAlign=top;align=left;overflow=fill;fontSize=12;fontFamily=Helvetica;html=1;" parent="1" vertex="1">
                    <mxGeometry x="334" y="320" width="160" height="90" as="geometry"/>
                </mxCell>
                <mxCell id="w2loQe_CoKNBEsXn6_GD-9" value="Extends" style="endArrow=block;endSize=16;endFill=0;html=1;fontSize=14;entryX=0.168;entryY=1.02;entryDx=0;entryDy=0;entryPerimeter=0;exitX=0.438;exitY=0;exitDx=0;exitDy=0;exitPerimeter=0;" parent="1" source="w2loQe_CoKNBEsXn6_GD-3" target="w2loQe_CoKNBEsXn6_GD-2" edge="1">
                    <mxGeometry x="-0.3982" y="51" width="160" relative="1" as="geometry">
                        <mxPoint x="319.5" y="360" as="sourcePoint"/>
                        <mxPoint x="319.5" y="310" as="targetPoint"/>
                        <mxPoint as="offset"/>
                    </mxGeometry>
                </mxCell>
                <mxCell id="w2loQe_CoKNBEsXn6_GD-10" value="Extends" style="endArrow=block;endSize=16;endFill=0;html=1;fontSize=14;entryX=0.75;entryY=1;entryDx=0;entryDy=0;exitX=0.25;exitY=0;exitDx=0;exitDy=0;" parent="1" source="w2loQe_CoKNBEsXn6_GD-5" target="w2loQe_CoKNBEsXn6_GD-2" edge="1">
                    <mxGeometry x="0.0883" y="43" width="160" relative="1" as="geometry">
                        <mxPoint x="370" y="310" as="sourcePoint"/>
                        <mxPoint x="712.4200000000001" y="260" as="targetPoint"/>
                        <mxPoint as="offset"/>
                    </mxGeometry>
                </mxCell>
            </root>
        </mxGraphModel>
    </diagram>
</mxfile>